<?xml version="1.0" encoding="UTF-8" standalone="no"?>
<!DOCTYPE svg PUBLIC "-//W3C//DTD SVG 1.1//EN"
 "http://www.w3.org/Graphics/SVG/1.1/DTD/svg11.dtd">
<!-- Generated by graphviz version 2.38.0 (20140413.2041)
 -->
<!-- Title: %3 Pages: 1 -->
<svg width="2626pt" height="563pt"
 viewBox="0.00 0.00 2626.00 562.70" xmlns="http://www.w3.org/2000/svg" xmlns:xlink="http://www.w3.org/1999/xlink">
<g id="graph0" class="graph" transform="scale(1 1) rotate(0) translate(4 558.701)">
<title>%3</title>
<polygon fill="white" stroke="none" points="-4,4 -4,-558.701 2622,-558.701 2622,4 -4,4"/>
<g id="clust1" class="cluster"><title>cluster_246</title>
<polygon fill="none" stroke="black" points="8,-8 8,-546.701 1227,-546.701 1227,-8 8,-8"/>
<text text-anchor="middle" x="617.5" y="-531.501" font-family="Times,serif" font-size="14.00">home_office</text>
<text text-anchor="middle" x="617.5" y="-516.501" font-family="Times,serif" font-size="14.00">246</text>
</g>
<g id="clust2" class="cluster"><title>cluster_284</title>
<polygon fill="none" stroke="black" points="921,-277.22 921,-500.701 1219,-500.701 1219,-277.22 921,-277.22"/>
<text text-anchor="middle" x="1070" y="-485.501" font-family="Times,serif" font-size="14.00">dresser</text>
<text text-anchor="middle" x="1070" y="-470.501" font-family="Times,serif" font-size="14.00">284</text>
</g>
<g id="clust3" class="cluster"><title>cluster_163</title>
<polygon fill="none" stroke="black" points="1235,-97.7401 1235,-546.701 2610,-546.701 2610,-97.7401 1235,-97.7401"/>
<text text-anchor="middle" x="1922.5" y="-531.501" font-family="Times,serif" font-size="14.00">dining_room</text>
<text text-anchor="middle" x="1922.5" y="-516.501" font-family="Times,serif" font-size="14.00">163</text>
</g>
<g id="clust4" class="cluster"><title>cluster_229</title>
<polygon fill="none" stroke="black" points="2460,-392.96 2460,-500.701 2602,-500.701 2602,-392.96 2460,-392.96"/>
<text text-anchor="middle" x="2531" y="-485.501" font-family="Times,serif" font-size="14.00">oven</text>
<text text-anchor="middle" x="2531" y="-470.501" font-family="Times,serif" font-size="14.00">229</text>
</g>
<g id="clust5" class="cluster"><title>cluster_234</title>
<polygon fill="none" stroke="black" points="2310,-277.22 2310,-384.96 2587,-384.96 2587,-277.22 2310,-277.22"/>
<text text-anchor="middle" x="2448.5" y="-369.76" font-family="Times,serif" font-size="14.00">freezer</text>
<text text-anchor="middle" x="2448.5" y="-354.76" font-family="Times,serif" font-size="14.00">234</text>
</g>
<!-- 246 -->
<!-- 2001 -->
<g id="node2" class="node"><title>2001</title>
<ellipse fill="none" stroke="black" cx="808" cy="-427.831" rx="31.2258" ry="26.7407"/>
<text text-anchor="middle" x="808" y="-431.631" font-family="Times,serif" font-size="14.00">cup</text>
<text text-anchor="middle" x="808" y="-416.631" font-family="Times,serif" font-size="14.00">2001</text>
</g>
<!-- 279 -->
<g id="node7" class="node"><title>279</title>
<ellipse fill="none" stroke="black" cx="562" cy="-312.09" rx="34.7971" ry="26.7407"/>
<text text-anchor="middle" x="562" y="-315.89" font-family="Times,serif" font-size="14.00">couch</text>
<text text-anchor="middle" x="562" y="-300.89" font-family="Times,serif" font-size="14.00">279</text>
</g>
<!-- 2001&#45;&gt;279 -->
<g id="edge7" class="edge"><title>2001&#45;&gt;279</title>
<path fill="none" stroke="blue" d="M787.409,-407.149C781.449,-402.093 774.727,-396.959 768,-392.96 715.036,-361.483 647.438,-338.063 604.421,-324.981"/>
<polygon fill="blue" stroke="blue" points="605.152,-321.547 594.569,-322.035 603.147,-328.253 605.152,-321.547"/>
</g>
<!-- 322 -->
<g id="node3" class="node"><title>322</title>
<ellipse fill="none" stroke="black" cx="651" cy="-42.8701" rx="47.2526" ry="26.7407"/>
<text text-anchor="middle" x="651" y="-46.6701" font-family="Times,serif" font-size="14.00">keyboard</text>
<text text-anchor="middle" x="651" y="-31.6701" font-family="Times,serif" font-size="14.00">322</text>
</g>
<!-- 2044 -->
<g id="node4" class="node"><title>2044</title>
<ellipse fill="none" stroke="black" cx="728" cy="-427.831" rx="31.2258" ry="26.7407"/>
<text text-anchor="middle" x="728" y="-431.631" font-family="Times,serif" font-size="14.00">knife</text>
<text text-anchor="middle" x="728" y="-416.631" font-family="Times,serif" font-size="14.00">2044</text>
</g>
<!-- 315 -->
<g id="node5" class="node"><title>315</title>
<ellipse fill="none" stroke="black" cx="562" cy="-222.35" rx="48.5816" ry="26.7407"/>
<text text-anchor="middle" x="562" y="-226.15" font-family="Times,serif" font-size="14.00">television</text>
<text text-anchor="middle" x="562" y="-211.15" font-family="Times,serif" font-size="14.00">315</text>
</g>
<!-- 315&#45;&gt;279 -->
<!-- 321 -->
<g id="node12" class="node"><title>321</title>
<ellipse fill="none" stroke="black" cx="574" cy="-132.61" rx="48.1667" ry="26.7407"/>
<text text-anchor="middle" x="574" y="-136.41" font-family="Times,serif" font-size="14.00">computer</text>
<text text-anchor="middle" x="574" y="-121.41" font-family="Times,serif" font-size="14.00">321</text>
</g>
<!-- 315&#45;&gt;321 -->
<!-- 320 -->
<g id="node6" class="node"><title>320</title>
<ellipse fill="none" stroke="black" cx="679" cy="-222.35" rx="50.41" ry="26.7407"/>
<text text-anchor="middle" x="679" y="-226.15" font-family="Times,serif" font-size="14.00">cpuscreen</text>
<text text-anchor="middle" x="679" y="-211.15" font-family="Times,serif" font-size="14.00">320</text>
</g>
<!-- 320&#45;&gt;322 -->
<!-- 320&#45;&gt;321 -->
<!-- 318 -->
<g id="node16" class="node"><title>318</title>
<ellipse fill="none" stroke="black" cx="752" cy="-132.61" rx="37.4533" ry="26.7407"/>
<text text-anchor="middle" x="752" y="-136.41" font-family="Times,serif" font-size="14.00">mouse</text>
<text text-anchor="middle" x="752" y="-121.41" font-family="Times,serif" font-size="14.00">318</text>
</g>
<!-- 320&#45;&gt;318 -->
<!-- 279&#45;&gt;315 -->
<!-- 284 -->
<!-- 296 -->
<g id="node9" class="node"><title>296</title>
<ellipse fill="none" stroke="black" cx="1078" cy="-427.831" rx="60.623" ry="26.7407"/>
<text text-anchor="middle" x="1078" y="-431.631" font-family="Times,serif" font-size="14.00">closetdrawer</text>
<text text-anchor="middle" x="1078" y="-416.631" font-family="Times,serif" font-size="14.00">296</text>
</g>
<!-- 301 -->
<g id="node11" class="node"><title>301</title>
<ellipse fill="none" stroke="black" cx="1078" cy="-312.09" rx="60.623" ry="26.7407"/>
<text text-anchor="middle" x="1078" y="-315.89" font-family="Times,serif" font-size="14.00">closetdrawer</text>
<text text-anchor="middle" x="1078" y="-300.89" font-family="Times,serif" font-size="14.00">301</text>
</g>
<!-- 296&#45;&gt;301 -->
<!-- 2026 -->
<g id="node10" class="node"><title>2026</title>
<ellipse fill="none" stroke="black" cx="964" cy="-427.831" rx="35.2113" ry="26.7407"/>
<text text-anchor="middle" x="964" y="-431.631" font-family="Times,serif" font-size="14.00">pencil</text>
<text text-anchor="middle" x="964" y="-416.631" font-family="Times,serif" font-size="14.00">2026</text>
</g>
<!-- 2040 -->
<g id="node13" class="node"><title>2040</title>
<ellipse fill="none" stroke="black" cx="645" cy="-427.831" rx="33.8824" ry="26.7407"/>
<text text-anchor="middle" x="645" y="-431.631" font-family="Times,serif" font-size="14.00">check</text>
<text text-anchor="middle" x="645" y="-416.631" font-family="Times,serif" font-size="14.00">2040</text>
</g>
<!-- 2004 -->
<g id="node14" class="node"><title>2004</title>
<ellipse fill="none" stroke="black" cx="562" cy="-427.831" rx="31.2258" ry="26.7407"/>
<text text-anchor="middle" x="562" y="-431.631" font-family="Times,serif" font-size="14.00">cup</text>
<text text-anchor="middle" x="562" y="-416.631" font-family="Times,serif" font-size="14.00">2004</text>
</g>
<!-- 2004&#45;&gt;279 -->
<g id="edge11" class="edge"><title>2004&#45;&gt;279</title>
<path fill="none" stroke="blue" d="M562,-400.736C562,-385.42 562,-365.842 562,-349.076"/>
<polygon fill="blue" stroke="blue" points="565.5,-349.063 562,-339.063 558.5,-349.063 565.5,-349.063"/>
</g>
<!-- 280 -->
<g id="node15" class="node"><title>280</title>
<ellipse fill="none" stroke="black" cx="463" cy="-427.831" rx="49.4949" ry="26.7407"/>
<text text-anchor="middle" x="463" y="-431.631" font-family="Times,serif" font-size="14.00">bookshelf</text>
<text text-anchor="middle" x="463" y="-416.631" font-family="Times,serif" font-size="14.00">280</text>
</g>
<!-- 318&#45;&gt;322 -->
<!-- 319 -->
<g id="node21" class="node"><title>319</title>
<ellipse fill="none" stroke="black" cx="767" cy="-42.8701" rx="50.8235" ry="26.7407"/>
<text text-anchor="middle" x="767" y="-46.6701" font-family="Times,serif" font-size="14.00">mousepad</text>
<text text-anchor="middle" x="767" y="-31.6701" font-family="Times,serif" font-size="14.00">319</text>
</g>
<!-- 318&#45;&gt;319 -->
<g id="edge23" class="edge"><title>318&#45;&gt;319</title>
<path fill="none" stroke="blue" d="M750.203,-105.76C751.11,-97.386 752.585,-87.9521 754.361,-79.0206"/>
<polygon fill="blue" stroke="blue" points="757.784,-79.7475 756.479,-69.2334 750.943,-78.2667 757.784,-79.7475"/>
</g>
<!-- 2033 -->
<g id="node17" class="node"><title>2033</title>
<ellipse fill="none" stroke="black" cx="362" cy="-427.831" rx="33.8824" ry="26.7407"/>
<text text-anchor="middle" x="362" y="-431.631" font-family="Times,serif" font-size="14.00">check</text>
<text text-anchor="middle" x="362" y="-416.631" font-family="Times,serif" font-size="14.00">2033</text>
</g>
<!-- 2023 -->
<g id="node18" class="node"><title>2023</title>
<ellipse fill="none" stroke="black" cx="275" cy="-427.831" rx="34.7971" ry="26.7407"/>
<text text-anchor="middle" x="275" y="-431.631" font-family="Times,serif" font-size="14.00">stereo</text>
<text text-anchor="middle" x="275" y="-416.631" font-family="Times,serif" font-size="14.00">2023</text>
</g>
<!-- 2028 -->
<g id="node19" class="node"><title>2028</title>
<ellipse fill="none" stroke="black" cx="170" cy="-427.831" rx="52.1524" ry="26.7407"/>
<text text-anchor="middle" x="170" y="-431.631" font-family="Times,serif" font-size="14.00">newspaper</text>
<text text-anchor="middle" x="170" y="-416.631" font-family="Times,serif" font-size="14.00">2028</text>
</g>
<!-- 2028&#45;&gt;279 -->
<g id="edge2" class="edge"><title>2028&#45;&gt;279</title>
<path fill="none" stroke="blue" d="M202.451,-406.69C211.46,-401.692 221.407,-396.701 231,-392.96 330.125,-354.306 453.476,-330.526 517.994,-319.811"/>
<polygon fill="blue" stroke="blue" points="518.903,-323.209 528.208,-318.143 517.775,-316.3 518.903,-323.209"/>
</g>
<!-- 2049 -->
<g id="node20" class="node"><title>2049</title>
<ellipse fill="none" stroke="black" cx="58" cy="-427.831" rx="41.9398" ry="26.7407"/>
<text text-anchor="middle" x="58" y="-431.631" font-family="Times,serif" font-size="14.00">tea_bag</text>
<text text-anchor="middle" x="58" y="-416.631" font-family="Times,serif" font-size="14.00">2049</text>
</g>
<!-- 319&#45;&gt;318 -->
<!-- 163 -->
<!-- 2021 -->
<g id="node23" class="node"><title>2021</title>
<ellipse fill="none" stroke="black" cx="2347" cy="-427.831" rx="31.2258" ry="26.7407"/>
<text text-anchor="middle" x="2347" y="-431.631" font-family="Times,serif" font-size="14.00">knife</text>
<text text-anchor="middle" x="2347" y="-416.631" font-family="Times,serif" font-size="14.00">2021</text>
</g>
<!-- 185 -->
<g id="node24" class="node"><title>185</title>
<ellipse fill="none" stroke="black" cx="2249" cy="-427.831" rx="48.5816" ry="26.7407"/>
<text text-anchor="middle" x="2249" y="-431.631" font-family="Times,serif" font-size="14.00">maindoor</text>
<text text-anchor="middle" x="2249" y="-416.631" font-family="Times,serif" font-size="14.00">185</text>
</g>
<!-- 2015 -->
<g id="node25" class="node"><title>2015</title>
<ellipse fill="none" stroke="black" cx="1292" cy="-427.831" rx="48.5816" ry="26.7407"/>
<text text-anchor="middle" x="1292" y="-431.631" font-family="Times,serif" font-size="14.00">controller</text>
<text text-anchor="middle" x="1292" y="-416.631" font-family="Times,serif" font-size="14.00">2015</text>
</g>
<!-- 189 -->
<g id="node43" class="node"><title>189</title>
<ellipse fill="none" stroke="black" cx="1328" cy="-312.09" rx="30.3115" ry="26.7407"/>
<text text-anchor="middle" x="1328" y="-315.89" font-family="Times,serif" font-size="14.00">table</text>
<text text-anchor="middle" x="1328" y="-300.89" font-family="Times,serif" font-size="14.00">189</text>
</g>
<!-- 2015&#45;&gt;189 -->
<g id="edge8" class="edge"><title>2015&#45;&gt;189</title>
<path fill="none" stroke="blue" d="M1300.08,-401.305C1305.07,-385.537 1311.54,-365.093 1317,-347.857"/>
<polygon fill="blue" stroke="blue" points="1320.39,-348.729 1320.07,-338.139 1313.72,-346.617 1320.39,-348.729"/>
</g>
<!-- 204 -->
<g id="node26" class="node"><title>204</title>
<ellipse fill="none" stroke="black" cx="2142" cy="-312.09" rx="53.9813" ry="26.7407"/>
<text text-anchor="middle" x="2142" y="-315.89" font-family="Times,serif" font-size="14.00">wall_clock</text>
<text text-anchor="middle" x="2142" y="-300.89" font-family="Times,serif" font-size="14.00">204</text>
</g>
<!-- 235 -->
<g id="node32" class="node"><title>235</title>
<ellipse fill="none" stroke="black" cx="2178" cy="-222.35" rx="43.6818" ry="26.7407"/>
<text text-anchor="middle" x="2178" y="-226.15" font-family="Times,serif" font-size="14.00">stovefan</text>
<text text-anchor="middle" x="2178" y="-211.15" font-family="Times,serif" font-size="14.00">235</text>
</g>
<!-- 204&#45;&gt;235 -->
<!-- 2017 -->
<g id="node27" class="node"><title>2017</title>
<ellipse fill="none" stroke="black" cx="1687" cy="-427.831" rx="48.1667" ry="26.7407"/>
<text text-anchor="middle" x="1687" y="-431.631" font-family="Times,serif" font-size="14.00">food_rice</text>
<text text-anchor="middle" x="1687" y="-416.631" font-family="Times,serif" font-size="14.00">2017</text>
</g>
<!-- 2009 -->
<g id="node41" class="node"><title>2009</title>
<ellipse fill="none" stroke="black" cx="1687" cy="-312.09" rx="31.2258" ry="26.7407"/>
<text text-anchor="middle" x="1687" y="-315.89" font-family="Times,serif" font-size="14.00">plate</text>
<text text-anchor="middle" x="1687" y="-300.89" font-family="Times,serif" font-size="14.00">2009</text>
</g>
<!-- 2017&#45;&gt;2009 -->
<g id="edge26" class="edge"><title>2017&#45;&gt;2009</title>
<path fill="none" stroke="blue" d="M1687,-400.736C1687,-385.42 1687,-365.842 1687,-349.076"/>
<polygon fill="blue" stroke="blue" points="1690.5,-349.063 1687,-339.063 1683.5,-349.063 1690.5,-349.063"/>
</g>
<!-- 231 -->
<g id="node28" class="node"><title>231</title>
<ellipse fill="none" stroke="black" cx="1879" cy="-427.831" rx="37.4533" ry="26.7407"/>
<text text-anchor="middle" x="1879" y="-431.631" font-family="Times,serif" font-size="14.00">toaster</text>
<text text-anchor="middle" x="1879" y="-416.631" font-family="Times,serif" font-size="14.00">231</text>
</g>
<!-- 236 -->
<g id="node29" class="node"><title>236</title>
<ellipse fill="none" stroke="black" cx="1995" cy="-427.831" rx="60.623" ry="26.7407"/>
<text text-anchor="middle" x="1995" y="-431.631" font-family="Times,serif" font-size="14.00">coffe_maker</text>
<text text-anchor="middle" x="1995" y="-416.631" font-family="Times,serif" font-size="14.00">236</text>
</g>
<!-- 236&#45;&gt;204 -->
<!-- 205 -->
<g id="node30" class="node"><title>205</title>
<ellipse fill="none" stroke="black" cx="1788" cy="-427.831" rx="35.2113" ry="26.7407"/>
<text text-anchor="middle" x="1788" y="-431.631" font-family="Times,serif" font-size="14.00">phone</text>
<text text-anchor="middle" x="1788" y="-416.631" font-family="Times,serif" font-size="14.00">205</text>
</g>
<!-- 205&#45;&gt;204 -->
<!-- 202 -->
<g id="node31" class="node"><title>202</title>
<ellipse fill="none" stroke="black" cx="1328" cy="-132.61" rx="48.5816" ry="26.7407"/>
<text text-anchor="middle" x="1328" y="-136.41" font-family="Times,serif" font-size="14.00">television</text>
<text text-anchor="middle" x="1328" y="-121.41" font-family="Times,serif" font-size="14.00">202</text>
</g>
<!-- 235&#45;&gt;204 -->
<!-- 229 -->
<!-- 229&#45;&gt;204 -->
<!-- 229&#45;&gt;235 -->
<!-- 234 -->
<!-- 229&#45;&gt;234 -->
<!-- 230 -->
<g id="node34" class="node"><title>230</title>
<ellipse fill="none" stroke="black" cx="2495" cy="-427.831" rx="27" ry="26.7407"/>
<text text-anchor="middle" x="2495" y="-431.631" font-family="Times,serif" font-size="14.00">tray</text>
<text text-anchor="middle" x="2495" y="-416.631" font-family="Times,serif" font-size="14.00">230</text>
</g>
<!-- 234&#45;&gt;235 -->
<!-- 2045 -->
<g id="node36" class="node"><title>2045</title>
<ellipse fill="none" stroke="black" cx="2453" cy="-312.09" rx="54.3945" ry="26.7407"/>
<text text-anchor="middle" x="2453" y="-315.89" font-family="Times,serif" font-size="14.00">food_pizza</text>
<text text-anchor="middle" x="2453" y="-300.89" font-family="Times,serif" font-size="14.00">2045</text>
</g>
<!-- 2008 -->
<g id="node37" class="node"><title>2008</title>
<ellipse fill="none" stroke="black" cx="2349" cy="-312.09" rx="31.2258" ry="26.7407"/>
<text text-anchor="middle" x="2349" y="-315.89" font-family="Times,serif" font-size="14.00">plate</text>
<text text-anchor="middle" x="2349" y="-300.89" font-family="Times,serif" font-size="14.00">2008</text>
</g>
<!-- 2037 -->
<g id="node38" class="node"><title>2037</title>
<ellipse fill="none" stroke="black" cx="1586" cy="-427.831" rx="35.2113" ry="26.7407"/>
<text text-anchor="middle" x="1586" y="-431.631" font-family="Times,serif" font-size="14.00">stamp</text>
<text text-anchor="middle" x="1586" y="-416.631" font-family="Times,serif" font-size="14.00">2037</text>
</g>
<!-- 190 -->
<g id="node39" class="node"><title>190</title>
<ellipse fill="none" stroke="black" cx="1365" cy="-222.35" rx="34.7971" ry="26.7407"/>
<text text-anchor="middle" x="1365" y="-226.15" font-family="Times,serif" font-size="14.00">bench</text>
<text text-anchor="middle" x="1365" y="-211.15" font-family="Times,serif" font-size="14.00">190</text>
</g>
<!-- 190&#45;&gt;202 -->
<!-- 191 -->
<g id="node40" class="node"><title>191</title>
<ellipse fill="none" stroke="black" cx="1278" cy="-222.35" rx="34.7971" ry="26.7407"/>
<text text-anchor="middle" x="1278" y="-226.15" font-family="Times,serif" font-size="14.00">bench</text>
<text text-anchor="middle" x="1278" y="-211.15" font-family="Times,serif" font-size="14.00">191</text>
</g>
<!-- 191&#45;&gt;202 -->
<!-- 162 -->
<g id="node42" class="node"><title>162</title>
<ellipse fill="none" stroke="black" cx="1486" cy="-427.831" rx="46.8387" ry="26.7407"/>
<text text-anchor="middle" x="1486" y="-431.631" font-family="Times,serif" font-size="14.00">character</text>
<text text-anchor="middle" x="1486" y="-416.631" font-family="Times,serif" font-size="14.00">162</text>
</g>
<!-- 189&#45;&gt;190 -->
<!-- 2002 -->
<g id="node44" class="node"><title>2002</title>
<ellipse fill="none" stroke="black" cx="1390" cy="-427.831" rx="31.2258" ry="26.7407"/>
<text text-anchor="middle" x="1390" y="-431.631" font-family="Times,serif" font-size="14.00">cup</text>
<text text-anchor="middle" x="1390" y="-416.631" font-family="Times,serif" font-size="14.00">2002</text>
</g>
<!-- 238 -->
<g id="node45" class="node"><title>238</title>
<ellipse fill="none" stroke="black" cx="2128" cy="-427.831" rx="54.3945" ry="26.7407"/>
<text text-anchor="middle" x="2128" y="-431.631" font-family="Times,serif" font-size="14.00">microwave</text>
<text text-anchor="middle" x="2128" y="-416.631" font-family="Times,serif" font-size="14.00">238</text>
</g>
<!-- 238&#45;&gt;204 -->
</g>
</svg>
